<?xml version="1.0" encoding="utf-8"?>
<svg width="155" height="35" viewBox="0 0 155 35" fill="none" xmlns="http://www.w3.org/2000/svg">
  <g id="Group">
    <g id="Group">
      <path id="Rectangle" d="M17.5 0C27.1663 0 35 7.8337 35 17.5L35 17.5C35 27.1663 27.1663 35 17.5 35L17.5 35C7.8337 35 0 27.1663 0 17.5L0 17.5C0 7.8337 7.8337 0 17.5 0Z" fill="#000000" transform="translate(0 0)" />
      <path id="Path" d="M17.5 17.5C17.5 7.83371 9.66631 0 0 0L0 35C9.66631 35 17.5 27.1663 17.5 17.5L17.5 17.5Z" fill="#000000" fill-rule="evenodd" transform="translate(35 0)" />
    </g>
    <path d="M2.11364 23.25L2.11364 5.79545L8.01136 5.79545Q10.0653 5.79545 11.3736 6.53267Q12.6818 7.26989 13.3125 8.52273Q13.9432 9.77557 13.9432 11.3182Q13.9432 12.8608 13.3168 14.1222Q12.6903 15.3835 11.3864 16.1293Q10.0824 16.875 8.04545 16.875L4.22727 16.875L4.22727 23.25L2.11364 23.25ZM4.22727 15L7.97727 15Q10.0824 15 10.973 13.9432Q11.8636 12.8864 11.8636 11.3182Q11.8636 9.74148 10.9688 8.70597Q10.0739 7.67045 7.94318 7.67045L4.22727 7.67045L4.22727 15ZM22.2614 23.5227Q20.4886 23.5227 19.1548 22.679Q17.821 21.8352 17.0753 20.3182Q16.3295 18.8011 16.3295 16.7727Q16.3295 14.7273 17.0753 13.2017Q17.821 11.6761 19.1548 10.8324Q20.4886 9.98864 22.2614 9.98864Q24.0341 9.98864 25.3679 10.8324Q26.7017 11.6761 27.4474 13.2017Q28.1932 14.7273 28.1932 16.7727Q28.1932 18.8011 27.4474 20.3182Q26.7017 21.8352 25.3679 22.679Q24.0341 23.5227 22.2614 23.5227ZM22.2614 21.7159Q23.608 21.7159 24.4773 21.0256Q25.3466 20.3352 25.7642 19.2102Q26.1818 18.0852 26.1818 16.7727Q26.1818 15.4602 25.7642 14.3267Q25.3466 13.1932 24.4773 12.4943Q23.608 11.7955 22.2614 11.7955Q20.9148 11.7955 20.0455 12.4943Q19.1761 13.1932 18.7585 14.3267Q18.3409 15.4602 18.3409 16.7727Q18.3409 18.0852 18.7585 19.2102Q19.1761 20.3352 20.0455 21.0256Q20.9148 21.7159 22.2614 21.7159ZM31.2614 23.25L31.2614 10.1591L33.2045 10.1591L33.2045 12.1364L33.3409 12.1364Q33.6989 11.1648 34.6364 10.5597Q35.5739 9.95455 36.75 9.95454Q36.9716 9.95454 37.304 9.96307Q37.6364 9.97159 37.8068 9.98864L37.8068 12.0341Q37.7045 12.0085 37.3423 11.9531Q36.9801 11.8977 36.5795 11.8977Q35.1477 11.8977 34.2102 12.767Q33.2727 13.6364 33.2727 14.9659L33.2727 23.25L31.2614 23.25ZM46.7045 10.1591L46.7045 11.8636L43.9091 11.8636L43.9091 19.5Q43.9091 20.3523 44.1605 20.7741Q44.4119 21.196 44.8082 21.3366Q45.2045 21.4773 45.6477 21.4773Q45.9801 21.4773 46.1932 21.4389Q46.4063 21.4006 46.5341 21.375L46.9432 23.1818Q46.7386 23.2585 46.3722 23.3395Q46.0057 23.4205 45.4432 23.4205Q44.5909 23.4205 43.777 23.054Q42.9631 22.6875 42.4304 21.9375Q41.8977 21.1875 41.8977 20.0455L41.8977 11.8636L39.9205 11.8636L39.9205 10.1591L41.8977 10.1591L41.8977 7.02273L43.9091 7.02273L43.9091 10.1591L46.7045 10.1591ZM55.5682 10.1591L55.5682 11.8636L52.6364 11.8636L52.6364 23.25L50.625 23.25L50.625 11.8636L48.5114 11.8636L48.5114 10.1591L50.625 10.1591L50.625 8.35227Q50.625 7.22727 51.1534 6.47727Q51.6818 5.72727 52.5256 5.35227Q53.3693 4.97727 54.3068 4.97727Q55.0483 4.97727 55.517 5.09659Q55.9858 5.21591 56.2159 5.31818L55.6364 7.05682Q55.483 7.00568 55.2145 6.92898Q54.946 6.85227 54.5114 6.85227Q53.5142 6.85227 53.0753 7.35511Q52.6364 7.85795 52.6364 8.82954L52.6364 10.1591L55.5682 10.1591ZM63.1705 23.5227Q61.3977 23.5227 60.0639 22.679Q58.7301 21.8352 57.9844 20.3182Q57.2386 18.8011 57.2386 16.7727Q57.2386 14.7273 57.9844 13.2017Q58.7301 11.6761 60.0639 10.8324Q61.3977 9.98864 63.1705 9.98864Q64.9432 9.98864 66.277 10.8324Q67.6108 11.6761 68.3565 13.2017Q69.1023 14.7273 69.1023 16.7727Q69.1023 18.8011 68.3565 20.3182Q67.6108 21.8352 66.277 22.679Q64.9432 23.5227 63.1705 23.5227ZM63.1705 21.7159Q64.517 21.7159 65.3864 21.0256Q66.2557 20.3352 66.6733 19.2102Q67.0909 18.0852 67.0909 16.7727Q67.0909 15.4602 66.6733 14.3267Q66.2557 13.1932 65.3864 12.4943Q64.517 11.7955 63.1705 11.7955Q61.8239 11.7955 60.9545 12.4943Q60.0852 13.1932 59.6676 14.3267Q59.25 15.4602 59.25 16.7727Q59.25 18.0852 59.6676 19.2102Q60.0852 20.3352 60.9545 21.0256Q61.8239 21.7159 63.1705 21.7159ZM74.1818 5.79545L74.1818 23.25L72.1705 23.25L72.1705 5.79545L74.1818 5.79545ZM77.8636 23.25L77.8636 10.1591L79.875 10.1591L79.875 23.25L77.8636 23.25ZM78.8864 7.97727Q78.2983 7.97727 77.8764 7.5767Q77.4545 7.17614 77.4545 6.61364Q77.4545 6.05114 77.8764 5.65057Q78.2983 5.25 78.8864 5.25Q79.4744 5.25 79.8963 5.65057Q80.3182 6.05114 80.3182 6.61364Q80.3182 7.17614 79.8963 7.5767Q79.4744 7.97727 78.8864 7.97727ZM88.875 23.5227Q87.1023 23.5227 85.7685 22.679Q84.4347 21.8352 83.6889 20.3182Q82.9432 18.8011 82.9432 16.7727Q82.9432 14.7273 83.6889 13.2017Q84.4347 11.6761 85.7685 10.8324Q87.1023 9.98864 88.875 9.98864Q90.6477 9.98864 91.9815 10.8324Q93.3153 11.6761 94.0611 13.2017Q94.8068 14.7273 94.8068 16.7727Q94.8068 18.8011 94.0611 20.3182Q93.3153 21.8352 91.9815 22.679Q90.6477 23.5227 88.875 23.5227ZM88.875 21.7159Q90.2216 21.7159 91.0909 21.0256Q91.9602 20.3352 92.3778 19.2102Q92.7955 18.0852 92.7955 16.7727Q92.7955 15.4602 92.3778 14.3267Q91.9602 13.1932 91.0909 12.4943Q90.2216 11.7955 88.875 11.7955Q87.5284 11.7955 86.6591 12.4943Q85.7898 13.1932 85.3722 14.3267Q84.9546 15.4602 84.9546 16.7727Q84.9546 18.0852 85.3722 19.2102Q85.7898 20.3352 86.6591 21.0256Q87.5284 21.7159 88.875 21.7159Z" fill="#757575" transform="translate(59 3)" />
  </g>
</svg>